<svg xmlns="http://www.w3.org/2000/svg" xmlns:xlink="http://www.w3.org/1999/xlink" width="100" height="120" viewBox="0 0 100 120" fill="none">
<path d="M60 0L100 39.9996L100 106C100 113.732 93.732 120 86 120L14 120C6.268 120 0 113.732 0 106L0 14.0004C0 6.2676 6.268 0 14 0L60 0Z"   fill="url(#linear_fill_E822B787-9B93-46A2-A647-DBA61452D2C3)" >
</path>

<g filter="url(#filter_319E13DD-903D-49C3-A924-1BAE817B43AA)">
<path d="M100 40L74.7072 40C66.9752 40 60 33.0248 60 25.2928L60 0L100 40Z"   fill="#FFFFFF" fill-opacity="0.4">
</path>

</g>

<path   fill-rule="evenodd"  fill="#FFFFFF"  d="M47.7471 74.6633C47.7471 74.6633 47.6071 74.5333 47.4771 74.5333C47.3471 74.4033 47.0771 74.2633 47.0771 74.0033L46.6771 71.3333L46.6771 54.0033C46.6771 53.4633 46.5471 52.8033 46.2771 52.2633C46.2771 52.0033 46.2771 51.7333 46.4071 51.6033C46.5471 51.4633 46.6771 51.3333 46.9471 51.3333L50.6771 51.3333C52.9471 51.3333 54.6771 53.0633 54.5471 55.3333L54.5471 83.3333C54.5471 84.6633 54.0071 85.7333 52.9471 86.5333C52.8071 86.6633 52.6771 86.6633 52.5471 86.6633C52.4071 86.6633 52.4071 86.5333 52.2771 86.5333C52.0071 86.5333 51.8771 86.2633 51.8771 86.0033L51.8771 80.0033C51.8771 77.8633 50.5471 75.8633 48.4071 75.0633L47.7471 74.6633ZM32.415 61.6C32.015 61.2 31.875 60.53 32.145 60L33.875 54L34.145 54L35.875 60C36.015 60.53 35.875 61.2 35.475 61.6C34.945 62.13 32.945 62.13 32.415 61.6Z">
</path>
<path d="M35.6104 50.2667L35.6104 50L32.0104 50L32.0104 50.2667L30.6771 54L31.7438 56.5333L32.6771 53.2L32.6771 53.2C32.8105 52.8 33.0771 52.6666 33.3438 52.6666L34.6771 52.6666C34.9438 52.6666 35.2105 52.8 35.3438 53.2L36.1438 56.2666L37.2105 54L35.6104 50.2667Z" fill-rule="evenodd"  fill="#FFFFFF" >
</path>
<path   fill-rule="evenodd"  fill="#FFFFFF"  d="M31.4804 62.53C30.6804 61.73 30.4104 60.53 30.8104 59.6L31.3404 58C31.0804 58 30.8104 57.87 30.6804 57.6L29.3404 54.27L29.3404 53.73L30.6804 50L24.0104 50C21.7404 50 20.0104 51.73 20.0104 54L20.0104 86C20.0104 88.27 21.7404 90 24.0104 90L46.6804 90C48.9404 90 50.6804 88.27 50.6804 86L50.6804 80C50.6804 78.27 49.6104 76.8 48.0104 76.27L47.0804 75.87C46.0104 75.47 45.2104 74.53 45.2104 73.33L45.2104 54C45.2104 51.73 43.4804 50 41.2104 50L36.9404 50L38.6804 53.73C38.8104 53.87 38.8104 54.13 38.6804 54.27L36.9404 57.6C36.9404 57.73 36.8104 57.87 36.6804 57.87L37.2104 59.6C37.6104 60.53 37.3404 61.73 36.5404 62.53C36.0104 63.07 35.0804 63.33 34.0104 63.33C32.9404 63.33 32.0104 63.07 31.4804 62.53ZM33.347 65.3367C33.347 64.9367 33.077 64.6667 32.677 64.6667L31.347 64.6667C30.947 64.6667 30.677 64.9367 30.677 65.3367C30.677 65.7367 30.947 65.9967 31.347 65.9967L32.677 65.9967C33.077 65.9967 33.347 65.7367 33.347 65.3367ZM36.677 66L35.347 66C34.947 66 34.677 66.27 34.677 66.67C34.677 67.07 34.947 67.33 35.347 67.33L36.677 67.33C37.077 67.33 37.347 67.07 37.347 66.67C37.347 66.27 37.077 66 36.677 66ZM33.347 68.0033C33.347 67.6033 33.077 67.3333 32.677 67.3333L31.347 67.3333C30.947 67.3333 30.677 67.6033 30.677 68.0033C30.677 68.4033 30.947 68.6633 31.347 68.6633L32.677 68.6633C33.077 68.6633 33.347 68.4033 33.347 68.0033ZM37.347 69.3367C37.347 68.9367 37.077 68.6667 36.677 68.6667L35.347 68.6667C34.947 68.6667 34.677 68.9367 34.677 69.3367C34.677 69.7367 34.947 69.9967 35.347 69.9967L36.677 69.9967C37.077 69.9967 37.347 69.7367 37.347 69.3367ZM33.347 70.67C33.347 70.27 33.077 70 32.677 70L31.347 70C30.947 70 30.677 70.27 30.677 70.67C30.677 71.07 30.947 71.33 31.347 71.33L32.677 71.33C33.077 71.33 33.347 71.07 33.347 70.67ZM37.347 72.0033C37.347 71.6033 37.077 71.3333 36.677 71.3333L35.347 71.3333C34.947 71.3333 34.677 71.6033 34.677 72.0033C34.677 72.4033 34.947 72.6633 35.347 72.6633L36.677 72.6633C37.077 72.6633 37.347 72.4033 37.347 72.0033ZM33.347 73.3367C33.347 72.9367 33.077 72.6667 32.677 72.6667L31.347 72.6667C30.947 72.6667 30.677 72.9367 30.677 73.3367C30.677 73.7367 30.947 73.9967 31.347 73.9967L32.677 73.9967C33.077 73.9967 33.347 73.7367 33.347 73.3367ZM35.347 75.33L36.677 75.33C37.077 75.33 37.347 75.07 37.347 74.67C37.347 74.27 37.077 74 36.677 74L35.347 74C34.947 74 34.677 74.27 34.677 74.67C34.677 75.07 34.947 75.33 35.347 75.33ZM33.347 76.0033C33.347 75.6033 33.077 75.3333 32.677 75.3333L31.347 75.3333C30.947 75.3333 30.677 75.6033 30.677 76.0033C30.677 76.4033 30.947 76.6633 31.347 76.6633L32.677 76.6633C33.077 76.6633 33.347 76.4033 33.347 76.0033ZM37.347 77.3367C37.347 76.9367 37.077 76.6667 36.677 76.6667L35.347 76.6667C34.947 76.6667 34.677 76.9367 34.677 77.3367C34.677 77.7367 34.947 77.9967 35.347 77.9967L36.677 77.9967C37.077 77.9967 37.347 77.7367 37.347 77.3367ZM33.347 78.67C33.347 78.27 33.077 78 32.677 78L31.347 78C30.947 78 30.677 78.27 30.677 78.67C30.677 79.07 30.947 79.33 31.347 79.33L32.677 79.33C33.077 79.33 33.347 79.07 33.347 78.67ZM37.347 80.0033C37.347 79.6033 37.077 79.3333 36.677 79.3333L35.347 79.3333C34.947 79.3333 34.677 79.6033 34.677 80.0033C34.677 80.4033 34.947 80.6633 35.347 80.6633L36.677 80.6633C37.077 80.6633 37.347 80.4033 37.347 80.0033ZM33.347 81.3367C33.347 80.9367 33.077 80.6667 32.677 80.6667L31.347 80.6667C30.947 80.6667 30.677 80.9367 30.677 81.3367C30.677 81.7367 30.947 81.9967 31.347 81.9967L32.677 81.9967C33.077 81.9967 33.347 81.7367 33.347 81.3367ZM37.347 82.67C37.347 82.27 37.077 82 36.677 82L35.347 82C34.947 82 34.677 82.27 34.677 82.67C34.677 83.07 34.947 83.33 35.347 83.33L36.677 83.33C37.077 83.33 37.347 83.07 37.347 82.67ZM33.347 84.0033C33.347 83.6033 33.077 83.3333 32.677 83.3333L31.347 83.3333C30.947 83.3333 30.677 83.6033 30.677 84.0033C30.677 84.4033 30.947 84.6633 31.347 84.6633L32.677 84.6633C33.077 84.6633 33.347 84.4033 33.347 84.0033Z">
</path>

<defs>
<linearGradient id="linear_fill_E822B787-9B93-46A2-A647-DBA61452D2C3" x1="50" y1="0" x2="50" y2="120" gradientUnits="userSpaceOnUse">
<stop offset="0" stop-color="#D0D8E1"  />
<stop offset="1" stop-color="#BAC3CD"  />
</linearGradient>
<mask id="mask-E822B787-9B93-46A2-A647-DBA61452D2C3" style="mask-type:alpha" maskUnits="userSpaceOnUse">
<path d="M60 0L100 39.9996L100 106C100 113.732 93.732 120 86 120L14 120C6.268 120 0 113.732 0 106L0 14.0004C0 6.2676 6.268 0 14 0L60 0Z"   fill="url(#linear_fill_E822B787-9B93-46A2-A647-DBA61452D2C3)" >
</path>
</mask>
<filter id="filter_319E13DD-903D-49C3-A924-1BAE817B43AA" x="58" y="-4" width="44" height="44" filterUnits="userSpaceOnUse" color-interpolation-filters="sRGB">
<feFlood flood-opacity="0" result="feFloodId_319E13DD-903D-49C3-A924-1BAE817B43AA"/>
<feColorMatrix in="SourceAlpha" type="matrix" values="0 0 0 0 0 0 0 0 0 0 0 0 0 0 0 0 0 0 127 0" result="hardAlpha_319E13DD-903D-49C3-A924-1BAE817B43AA"/>
<feOffset dx="0" dy="-2"/>
<feGaussianBlur stdDeviation="1"/>
<feComposite in2="hardAlpha_319E13DD-903D-49C3-A924-1BAE817B43AA" operator="out"/>
<feColorMatrix type="matrix" values="0 0 0 0 0 0 0 0 0 0 0 0 0 0 0 0 0 0 0.09 0"/>
<feBlend mode="normal" in2="feFloodId_319E13DD-903D-49C3-A924-1BAE817B43AA" result="dropShadow_1_319E13DD-903D-49C3-A924-1BAE817B43AA"/>
<feBlend mode="normal" in="SourceGraphic" in2="dropShadow_1_319E13DD-903D-49C3-A924-1BAE817B43AA" result="shape_319E13DD-903D-49C3-A924-1BAE817B43AA"/>
</filter>
</defs>
</svg>
