<svg xmlns="http://www.w3.org/2000/svg" xmlns:xlink="http://www.w3.org/1999/xlink" width="102" height="124" viewBox="0 0 102 124" fill="none">
<path d="M60 4L100 43.9996L100 110C100 117.732 93.732 124 86 124L14 124C6.268 124 0 117.732 0 110L0 18.0004C0 10.2676 6.268 4 14 4L60 4Z"   fill="#424242" >
</path>
<g opacity="0.4">
<g filter="url(#filter_A6FD557D-5E8B-4586-99A4-CADB0C1D40B5)">
<path d="M100 44L74.7072 44C66.9752 44 60 37.0248 60 29.2928L60 4L100 44Z"   fill="#FFFFFF" fill-opacity="0.4">
</path>
</g>
</g>
<path   fill-rule="evenodd"  fill="#FFFFFF"  d="M23.2349 82.8275C23.2349 86.9775 26.6649 90.4175 30.8249 90.4175C34.9457 90.4175 38.3664 87.0257 38.4144 82.915C38.4128 82.886 38.412 82.8568 38.412 82.8275C38.412 76.9075 43.282 72.0375 49.202 72.0375C55.112 72.0375 59.982 76.8275 59.982 82.8275C59.982 88.7375 55.112 93.6075 49.202 93.6075C46.962 93.6075 44.802 92.9675 43.042 91.6975C42.332 91.2175 42.172 90.1775 42.642 89.4575C43.122 88.7375 44.162 88.5775 44.882 89.0575C46.162 89.9375 47.682 90.4175 49.202 90.4175C53.352 90.4175 56.792 86.9775 56.792 82.8275C56.792 78.6675 53.352 75.2375 49.202 75.2375C45.042 75.2375 41.612 78.6675 41.612 82.8275C41.612 82.8826 41.6092 82.9371 41.6037 82.9907C41.515 88.8269 36.6804 93.6075 30.8249 93.6075C24.9049 93.6075 20.0349 88.7375 20.0349 82.8275C20.0349 76.9075 24.9049 72.0375 30.8249 72.0375C32.8949 72.0375 34.8949 72.5975 36.6549 73.7175C37.3749 74.1975 37.6149 75.1575 37.1349 75.9575C36.6549 76.6675 35.6949 76.9075 34.8949 76.4275C33.6949 75.6375 32.2549 75.2375 30.8249 75.2375C26.6649 75.2375 23.2349 78.6675 23.2349 82.8275Z">
</path>
<defs>
<filter id="filter_A6FD557D-5E8B-4586-99A4-CADB0C1D40B5" x="58" y="0" width="44" height="44" filterUnits="userSpaceOnUse" color-interpolation-filters="sRGB">
<feFlood flood-opacity="0" result="feFloodId_A6FD557D-5E8B-4586-99A4-CADB0C1D40B5"/>
<feColorMatrix in="SourceAlpha" type="matrix" values="0 0 0 0 0 0 0 0 0 0 0 0 0 0 0 0 0 0 127 0" result="hardAlpha_A6FD557D-5E8B-4586-99A4-CADB0C1D40B5"/>
<feOffset dx="0" dy="-2"/>
<feGaussianBlur stdDeviation="1"/>
<feComposite in2="hardAlpha_A6FD557D-5E8B-4586-99A4-CADB0C1D40B5" operator="out"/>
<feColorMatrix type="matrix" values="0 0 0 0 0 0 0 0 0 0 0 0 0 0 0 0 0 0 0.09 0"/>
<feBlend mode="normal" in2="feFloodId_A6FD557D-5E8B-4586-99A4-CADB0C1D40B5" result="dropShadow_1_A6FD557D-5E8B-4586-99A4-CADB0C1D40B5"/>
<feBlend mode="normal" in="SourceGraphic" in2="dropShadow_1_A6FD557D-5E8B-4586-99A4-CADB0C1D40B5" result="shape_A6FD557D-5E8B-4586-99A4-CADB0C1D40B5"/>
</filter>
</defs>
</svg>
