<svg xmlns="http://www.w3.org/2000/svg" xmlns:xlink="http://www.w3.org/1999/xlink" width="102" height="124" viewBox="0 0 102 124" fill="none">
<path d="M100 110C100 117.732 93.732 124 86 124L14 124C6.268 124 0 117.732 0 110L0 18.0004C0 10.2676 6.268 4 14 4L60 4L100 43.9996L100 110Z"   fill="url(#linear_fill_338CBAFD-0011-4743-9280-DFE63A1C4F54)" >
</path>
<g filter="url(#filter_F94E7EFF-E61B-4DDD-96B3-97BD96619348)">
<path d="M100 44L74.7072 44C66.9752 44 60 37.0248 60 29.2928L60 4L100 44Z"   fill="#FFFFFF" fill-opacity="0.4">
</path>
</g>
<path   fill-rule="evenodd"  fill="#FFFFFF"  d="M20.0134 57.3459L20.0134 54.0159L59.9634 54.0159L59.9634 54.048L59.9757 54.048L59.9757 93.998L56.6457 93.998L56.6457 93.9945L46.6362 93.9945L46.6362 93.9977L43.3062 93.9977L43.3062 93.9945L36.7176 93.9945L36.7176 93.9977L33.3876 93.9977L33.3876 93.9945L23.3551 93.9945L23.3551 93.998L20.0251 93.998L20.0251 93.9945L20.0182 93.9945L20.0182 90.6645L20.0251 90.6645L20.0251 80.6065L20.0159 80.6065L20.0159 77.2765L20.0251 77.2765L20.0251 67.2185L20.0134 67.2185L20.0134 63.8885L20.0251 63.8885L20.0251 57.3459L20.0134 57.3459ZM23.3551 57.3459L23.3551 63.8885L56.6457 63.8885L56.6457 57.3459L23.3551 57.3459ZM56.6457 67.2185L46.6362 67.2185L46.6362 77.2765L56.6457 77.2765L56.6457 67.2185ZM56.6457 80.6065L46.6362 80.6065L46.6362 90.6645L56.6457 90.6645L56.6457 80.6065ZM43.3062 90.6645L43.3062 80.6065L36.7176 80.6065L36.7176 90.6645L43.3062 90.6645ZM33.3876 90.6645L33.3876 80.6065L23.3551 80.6065L23.3551 90.6645L33.3876 90.6645ZM23.3551 77.2765L33.3876 77.2765L33.3876 67.2185L23.3551 67.2185L23.3551 77.2765ZM36.7176 67.2185L36.7176 77.2765L43.3062 77.2765L43.3062 67.2185L36.7176 67.2185Z">
</path>
<defs>
<linearGradient id="linear_fill_338CBAFD-0011-4743-9280-DFE63A1C4F54" x1="50" y1="4" x2="50" y2="124" gradientUnits="userSpaceOnUse">
<stop offset="0" stop-color="#1ABF74"  />
<stop offset="1" stop-color="#009F57"  />
</linearGradient>
<filter id="filter_F94E7EFF-E61B-4DDD-96B3-97BD96619348" x="58" y="0" width="44" height="44" filterUnits="userSpaceOnUse" color-interpolation-filters="sRGB">
<feFlood flood-opacity="0" result="feFloodId_F94E7EFF-E61B-4DDD-96B3-97BD96619348"/>
<feColorMatrix in="SourceAlpha" type="matrix" values="0 0 0 0 0 0 0 0 0 0 0 0 0 0 0 0 0 0 127 0" result="hardAlpha_F94E7EFF-E61B-4DDD-96B3-97BD96619348"/>
<feOffset dx="0" dy="-2"/>
<feGaussianBlur stdDeviation="1"/>
<feComposite in2="hardAlpha_F94E7EFF-E61B-4DDD-96B3-97BD96619348" operator="out"/>
<feColorMatrix type="matrix" values="0 0 0 0 0 0 0 0 0 0 0 0 0 0 0 0 0 0 0.09 0"/>
<feBlend mode="normal" in2="feFloodId_F94E7EFF-E61B-4DDD-96B3-97BD96619348" result="dropShadow_1_F94E7EFF-E61B-4DDD-96B3-97BD96619348"/>
<feBlend mode="normal" in="SourceGraphic" in2="dropShadow_1_F94E7EFF-E61B-4DDD-96B3-97BD96619348" result="shape_F94E7EFF-E61B-4DDD-96B3-97BD96619348"/>
</filter>
</defs>
</svg>
