<svg xmlns="http://www.w3.org/2000/svg" xmlns:xlink="http://www.w3.org/1999/xlink" width="102" height="124" viewBox="0 0 102 124" fill="none">
<path d="M60 4L100 43.9996L100 110C100 117.732 93.732 124 86 124L14 124C6.268 124 0 117.732 0 110L0 18.0004C0 10.2676 6.268 4 14 4L60 4Z"   fill="url(#linear_fill_7ACA49C2-FD02-4F96-B4E8-05F66CFCC640)" >
</path>
<g filter="url(#filter_ACD44181-8D87-4DE7-995F-0D574258E6BA)">
<path d="M74.7072 44C66.9752 44 60 37.0248 60 29.2928L60 4L100 44L74.7072 44Z"   fill="#FFFFFF" fill-opacity="0.4">
</path>
</g>
<g opacity="0.4">
<path d="M38.554 56.901C28.3117 56.901 20.0134 65.2035 20.0134 75.4416C20.0134 85.6797 28.3161 93.9822 38.554 93.9822C48.7918 93.9822 57.099 85.6797 57.099 75.4371L38.554 75.4371L38.554 56.901Z"   fill="#FFFFFF" >
</path>
</g>
<path d="M41.4416 54.0089L41.4416 72.5539L59.9822 72.5539C59.9866 62.3115 51.6842 54.0089 41.4416 54.0089L41.4416 54.0089Z" fill-rule="evenodd"  fill="#FFFFFF" >
</path>
<defs>
<linearGradient id="linear_fill_7ACA49C2-FD02-4F96-B4E8-05F66CFCC640" x1="50" y1="4" x2="50" y2="124" gradientUnits="userSpaceOnUse">
<stop offset="0" stop-color="#FD7541"  />
<stop offset="1" stop-color="#EB5F29"  />
</linearGradient>
<filter id="filter_ACD44181-8D87-4DE7-995F-0D574258E6BA" x="58" y="0" width="44" height="44" filterUnits="userSpaceOnUse" color-interpolation-filters="sRGB">
<feFlood flood-opacity="0" result="feFloodId_ACD44181-8D87-4DE7-995F-0D574258E6BA"/>
<feColorMatrix in="SourceAlpha" type="matrix" values="0 0 0 0 0 0 0 0 0 0 0 0 0 0 0 0 0 0 127 0" result="hardAlpha_ACD44181-8D87-4DE7-995F-0D574258E6BA"/>
<feOffset dx="0" dy="-2"/>
<feGaussianBlur stdDeviation="1"/>
<feComposite in2="hardAlpha_ACD44181-8D87-4DE7-995F-0D574258E6BA" operator="out"/>
<feColorMatrix type="matrix" values="0 0 0 0 0 0 0 0 0 0 0 0 0 0 0 0 0 0 0.09 0"/>
<feBlend mode="normal" in2="feFloodId_ACD44181-8D87-4DE7-995F-0D574258E6BA" result="dropShadow_1_ACD44181-8D87-4DE7-995F-0D574258E6BA"/>
<feBlend mode="normal" in="SourceGraphic" in2="dropShadow_1_ACD44181-8D87-4DE7-995F-0D574258E6BA" result="shape_ACD44181-8D87-4DE7-995F-0D574258E6BA"/>
</filter>
</defs>
</svg>
