<svg xmlns="http://www.w3.org/2000/svg" xmlns:xlink="http://www.w3.org/1999/xlink" width="102" height="124" viewBox="0 0 102 124" fill="none">
<path d="M60 4L100 43.9996L100 110C100 117.732 93.732 124 86 124L14 124C6.268 124 0 117.732 0 110L0 18.0004C0 10.2676 6.268 4 14 4L60 4Z"   fill="#E94848" >
</path>
<path   fill-rule="evenodd"  fill="#FFFFFF"  d="M66.22 80.01C62.5 80.01 57.98 78.35 54.86 75.83C50.58 76.85 46.15 78.54 41.92 80.21C40.08 83.67 38.02 87.45 36.27 89.54C36.24 89.56 36.21 89.59 36.18 89.61C35.29 90.52 34.06 91 32.78 91C30.16 91 28 88.84 28 86.22C28 84.93 28.51 83.72 29.37 82.83C29.41 82.79 29.44 82.75 29.48 82.71C31.85 80.8 35.8 79.51 40.23 77.77C42.39 73.55 44.08 68.55 45.57 63.89C43.67 60.08 41.86 56.04 41.86 52.78C41.86 50.16 44.01 48 46.63 48C49.25 48 51.41 50.16 51.41 52.78C51.41 55.81 49.93 59.71 48.66 63.62C50.44 66.96 52.91 70.11 55.59 72.64C58.91 71.52 63.24 70.46 66.22 70.46C68.84 70.46 71 72.61 71 75.23C71 77.85 68.84 80.01 66.22 80.01ZM46.8822 59.6867C45.7022 56.9267 44.7222 54.2767 44.7222 52.7767C44.7222 51.7067 45.5622 50.8667 46.6322 50.8667C47.7022 50.8667 48.5422 51.7067 48.5422 52.7767C48.5422 54.2167 47.7722 56.8567 46.8822 59.6867ZM52.4102 73.5156C49.5802 74.2956 46.8102 75.2856 44.0802 76.3256C45.4002 73.3456 46.4502 70.2556 47.4502 67.2156C48.8902 69.5056 50.5702 71.6256 52.4102 73.5156ZM66.2229 77.1422C64.0729 77.1422 61.0129 76.1722 58.5629 74.8122C61.3729 74.0222 64.4329 73.3222 66.2229 73.3222C67.2929 73.3222 68.1329 74.1622 68.1329 75.2322C68.1329 76.3022 67.2929 77.1422 66.2229 77.1422ZM30.8667 86.2174C30.8667 85.7174 31.0767 85.2174 31.3767 84.8974C32.4967 84.0274 34.9367 82.9874 37.7067 81.8774C36.3567 84.2774 35.0267 86.5174 34.0967 87.6374C33.7767 87.9474 33.3467 88.1374 32.7767 88.1374C31.7067 88.1374 30.8667 87.2974 30.8667 86.2174Z">
</path>
<g filter="url(#filter_ED398384-5B05-41D6-A506-E7FBC9251BE4)">
<path d="M100 44L74.7072 44C66.9752 44 60 37.0248 60 29.2928L60 4L100 44Z"   fill="#FFFFFF" fill-opacity="0.4">
</path>
</g>
<defs>
<filter id="filter_ED398384-5B05-41D6-A506-E7FBC9251BE4" x="58" y="0" width="44" height="44" filterUnits="userSpaceOnUse" color-interpolation-filters="sRGB">
<feFlood flood-opacity="0" result="feFloodId_ED398384-5B05-41D6-A506-E7FBC9251BE4"/>
<feColorMatrix in="SourceAlpha" type="matrix" values="0 0 0 0 0 0 0 0 0 0 0 0 0 0 0 0 0 0 127 0" result="hardAlpha_ED398384-5B05-41D6-A506-E7FBC9251BE4"/>
<feOffset dx="0" dy="-2"/>
<feGaussianBlur stdDeviation="1"/>
<feComposite in2="hardAlpha_ED398384-5B05-41D6-A506-E7FBC9251BE4" operator="out"/>
<feColorMatrix type="matrix" values="0 0 0 0 0 0 0 0 0 0 0 0 0 0 0 0 0 0 0.09 0"/>
<feBlend mode="normal" in2="feFloodId_ED398384-5B05-41D6-A506-E7FBC9251BE4" result="dropShadow_1_ED398384-5B05-41D6-A506-E7FBC9251BE4"/>
<feBlend mode="normal" in="SourceGraphic" in2="dropShadow_1_ED398384-5B05-41D6-A506-E7FBC9251BE4" result="shape_ED398384-5B05-41D6-A506-E7FBC9251BE4"/>
</filter>
</defs>
</svg>
